<mxfile host="app.diagrams.net" agent="Mozilla/5.0 (Windows NT 10.0; Win64; x64) AppleWebKit/537.36 (KHTML, like Gecko) Chrome/131.0.0.0 Safari/537.36" version="25.0.3">
  <diagram name="Page-1" id="y-DVcdYNDpOqj5ZdA4q0">
    <mxGraphModel grid="0" page="0" gridSize="10" guides="1" tooltips="1" connect="1" arrows="1" fold="1" pageScale="1" pageWidth="850" pageHeight="1100" math="0" shadow="0">
      <root>
        <mxCell id="0" />
        <mxCell id="1" parent="0" />
        <mxCell id="_kjHKjL6vWHTuBEeskR6-1" value="&lt;span style=&quot;font-size: 10px;&quot;&gt;&lt;b&gt;IBD:&lt;/b&gt;&lt;/span&gt;" style="shape=umlFrame;whiteSpace=wrap;html=1;pointerEvents=0;recursiveResize=0;container=1;collapsible=0;width=100;height=30;" vertex="1" parent="1">
          <mxGeometry x="-716" y="940" width="1175" height="601" as="geometry" />
        </mxCell>
        <mxCell id="_kjHKjL6vWHTuBEeskR6-5" value=":ESP32" style="html=1;whiteSpace=wrap;" vertex="1" parent="_kjHKjL6vWHTuBEeskR6-1">
          <mxGeometry x="415" y="219" width="385" height="209" as="geometry" />
        </mxCell>
        <mxCell id="EJYVXyQKUs83lIH7_FpG-4" value=":PT550" style="html=1;whiteSpace=wrap;" vertex="1" parent="_kjHKjL6vWHTuBEeskR6-1">
          <mxGeometry x="658" y="54" width="186.5" height="102" as="geometry" />
        </mxCell>
        <mxCell id="EJYVXyQKUs83lIH7_FpG-5" value="" style="html=1;shape=mxgraph.sysml.port;sysMLPortType=flowN;direction=west;" vertex="1" parent="_kjHKjL6vWHTuBEeskR6-1">
          <mxGeometry x="735" y="-13" width="20" height="20" as="geometry" />
        </mxCell>
        <mxCell id="EJYVXyQKUs83lIH7_FpG-6" value="" style="html=1;shape=mxgraph.sysml.port;sysMLPortType=flowN;direction=west;" vertex="1" parent="_kjHKjL6vWHTuBEeskR6-1">
          <mxGeometry x="735" y="42" width="20" height="20" as="geometry" />
        </mxCell>
        <mxCell id="EJYVXyQKUs83lIH7_FpG-8" style="edgeStyle=orthogonalEdgeStyle;rounded=0;orthogonalLoop=1;jettySize=auto;html=1;entryX=0.5;entryY=1;entryDx=0;entryDy=0;entryPerimeter=0;endArrow=none;endFill=0;" edge="1" parent="_kjHKjL6vWHTuBEeskR6-1" source="EJYVXyQKUs83lIH7_FpG-5" target="EJYVXyQKUs83lIH7_FpG-6">
          <mxGeometry relative="1" as="geometry" />
        </mxCell>
        <mxCell id="EJYVXyQKUs83lIH7_FpG-10" value="" style="html=1;shape=mxgraph.sysml.port;sysMLPortType=flowN;direction=west;" vertex="1" parent="_kjHKjL6vWHTuBEeskR6-1">
          <mxGeometry x="735" y="148" width="20" height="20" as="geometry" />
        </mxCell>
        <mxCell id="EJYVXyQKUs83lIH7_FpG-11" value="" style="html=1;shape=mxgraph.sysml.port;sysMLPortType=flowN;direction=west;" vertex="1" parent="_kjHKjL6vWHTuBEeskR6-1">
          <mxGeometry x="735" y="210" width="20" height="20" as="geometry" />
        </mxCell>
        <mxCell id="EJYVXyQKUs83lIH7_FpG-12" style="edgeStyle=orthogonalEdgeStyle;rounded=0;orthogonalLoop=1;jettySize=auto;html=1;entryX=0.5;entryY=1;entryDx=0;entryDy=0;entryPerimeter=0;endArrow=none;endFill=0;" edge="1" parent="_kjHKjL6vWHTuBEeskR6-1" source="EJYVXyQKUs83lIH7_FpG-10" target="EJYVXyQKUs83lIH7_FpG-11">
          <mxGeometry relative="1" as="geometry" />
        </mxCell>
        <mxCell id="EJYVXyQKUs83lIH7_FpG-13" value="&lt;span style=&quot;color: rgb(0, 0, 0); font-family: Helvetica; font-size: 12px; font-style: normal; font-variant-ligatures: normal; font-variant-caps: normal; font-weight: 400; letter-spacing: normal; orphans: 2; text-align: left; text-indent: 0px; text-transform: none; widows: 2; word-spacing: 0px; -webkit-text-stroke-width: 0px; white-space: normal; background-color: rgb(251, 251, 251); text-decoration-thickness: initial; text-decoration-style: initial; text-decoration-color: initial; display: inline !important; float: none;&quot;&gt;data: Intensity&lt;/span&gt;" style="text;whiteSpace=wrap;html=1;" vertex="1" parent="_kjHKjL6vWHTuBEeskR6-1">
          <mxGeometry x="748" y="174" width="103" height="36" as="geometry" />
        </mxCell>
        <mxCell id="EJYVXyQKUs83lIH7_FpG-14" value="&lt;span style=&quot;text-wrap-mode: nowrap; background-color: rgb(251, 251, 251);&quot;&gt;:Ina1 69&lt;/span&gt;" style="html=1;whiteSpace=wrap;" vertex="1" parent="_kjHKjL6vWHTuBEeskR6-1">
          <mxGeometry x="962" y="246" width="132" height="102" as="geometry" />
        </mxCell>
        <mxCell id="EJYVXyQKUs83lIH7_FpG-27" value=":Solar panel" style="html=1;whiteSpace=wrap;" vertex="1" parent="_kjHKjL6vWHTuBEeskR6-1">
          <mxGeometry x="932" y="65" width="186.5" height="102" as="geometry" />
        </mxCell>
        <mxCell id="EJYVXyQKUs83lIH7_FpG-28" value="" style="html=1;shape=mxgraph.sysml.port;sysMLPortType=flowN;direction=west;" vertex="1" parent="_kjHKjL6vWHTuBEeskR6-1">
          <mxGeometry x="1015.25" y="-7" width="20" height="20" as="geometry" />
        </mxCell>
        <mxCell id="EJYVXyQKUs83lIH7_FpG-29" value="" style="html=1;shape=mxgraph.sysml.port;sysMLPortType=flowN;direction=west;" vertex="1" parent="_kjHKjL6vWHTuBEeskR6-1">
          <mxGeometry x="1015.25" y="55" width="20" height="20" as="geometry" />
        </mxCell>
        <mxCell id="EJYVXyQKUs83lIH7_FpG-30" value="" style="html=1;shape=mxgraph.sysml.port;sysMLPortType=flowN;direction=west;" vertex="1" parent="_kjHKjL6vWHTuBEeskR6-1">
          <mxGeometry x="1015.25" y="157" width="20" height="20" as="geometry" />
        </mxCell>
        <mxCell id="EJYVXyQKUs83lIH7_FpG-31" value="" style="html=1;shape=mxgraph.sysml.port;sysMLPortType=flowN;direction=west;" vertex="1" parent="_kjHKjL6vWHTuBEeskR6-1">
          <mxGeometry x="1015.25" y="233" width="20" height="20" as="geometry" />
        </mxCell>
        <mxCell id="EJYVXyQKUs83lIH7_FpG-32" value="" style="html=1;shape=mxgraph.sysml.port;sysMLPortType=flowN;direction=north;" vertex="1" parent="_kjHKjL6vWHTuBEeskR6-1">
          <mxGeometry x="952" y="291.5" width="20" height="20" as="geometry" />
        </mxCell>
        <mxCell id="EJYVXyQKUs83lIH7_FpG-33" value="" style="html=1;shape=mxgraph.sysml.port;sysMLPortType=flowN;direction=north;" vertex="1" parent="_kjHKjL6vWHTuBEeskR6-1">
          <mxGeometry x="786" y="291.5" width="20" height="20" as="geometry" />
        </mxCell>
        <mxCell id="EJYVXyQKUs83lIH7_FpG-34" style="edgeStyle=orthogonalEdgeStyle;rounded=0;orthogonalLoop=1;jettySize=auto;html=1;entryX=0.5;entryY=1;entryDx=0;entryDy=0;entryPerimeter=0;endArrow=none;endFill=0;" edge="1" parent="_kjHKjL6vWHTuBEeskR6-1" source="EJYVXyQKUs83lIH7_FpG-28" target="EJYVXyQKUs83lIH7_FpG-29">
          <mxGeometry relative="1" as="geometry" />
        </mxCell>
        <mxCell id="EJYVXyQKUs83lIH7_FpG-35" style="edgeStyle=orthogonalEdgeStyle;rounded=0;orthogonalLoop=1;jettySize=auto;html=1;entryX=0.5;entryY=1;entryDx=0;entryDy=0;entryPerimeter=0;endArrow=none;endFill=0;" edge="1" parent="_kjHKjL6vWHTuBEeskR6-1" source="EJYVXyQKUs83lIH7_FpG-30" target="EJYVXyQKUs83lIH7_FpG-31">
          <mxGeometry relative="1" as="geometry" />
        </mxCell>
        <mxCell id="EJYVXyQKUs83lIH7_FpG-36" style="edgeStyle=orthogonalEdgeStyle;rounded=0;orthogonalLoop=1;jettySize=auto;html=1;entryX=0.5;entryY=1;entryDx=0;entryDy=0;entryPerimeter=0;endArrow=none;endFill=0;" edge="1" parent="_kjHKjL6vWHTuBEeskR6-1" source="EJYVXyQKUs83lIH7_FpG-32" target="EJYVXyQKUs83lIH7_FpG-33">
          <mxGeometry relative="1" as="geometry" />
        </mxCell>
        <mxCell id="EJYVXyQKUs83lIH7_FpG-38" value="&lt;span style=&quot;color: rgb(0, 0, 0); font-family: Helvetica; font-size: 12px; font-style: normal; font-variant-ligatures: normal; font-variant-caps: normal; font-weight: 400; letter-spacing: normal; orphans: 2; text-align: left; text-indent: 0px; text-transform: none; widows: 2; word-spacing: 0px; -webkit-text-stroke-width: 0px; white-space: normal; background-color: rgb(251, 251, 251); text-decoration-thickness: initial; text-decoration-style: initial; text-decoration-color: initial; display: inline !important; float: none;&quot;&gt;energy: Voltage/current DC&lt;/span&gt;" style="text;whiteSpace=wrap;html=1;" vertex="1" parent="_kjHKjL6vWHTuBEeskR6-1">
          <mxGeometry x="945.5" y="193.99666666666667" width="173" height="36" as="geometry" />
        </mxCell>
        <mxCell id="EJYVXyQKUs83lIH7_FpG-39" value="&lt;span style=&quot;color: rgb(0, 0, 0); font-family: Helvetica; font-size: 12px; font-style: normal; font-variant-ligatures: normal; font-variant-caps: normal; font-weight: 400; letter-spacing: normal; orphans: 2; text-align: left; text-indent: 0px; text-transform: none; widows: 2; word-spacing: 0px; -webkit-text-stroke-width: 0px; white-space: normal; background-color: rgb(251, 251, 251); text-decoration-thickness: initial; text-decoration-style: initial; text-decoration-color: initial; display: inline !important; float: none;&quot;&gt;analog signal: ADC&lt;/span&gt;" style="text;whiteSpace=wrap;html=1;" vertex="1" parent="_kjHKjL6vWHTuBEeskR6-1">
          <mxGeometry x="815.4966666666667" y="268.99666666666667" width="130" height="36" as="geometry" />
        </mxCell>
        <mxCell id="EJYVXyQKUs83lIH7_FpG-40" value=":T-display" style="html=1;whiteSpace=wrap;" vertex="1" parent="_kjHKjL6vWHTuBEeskR6-1">
          <mxGeometry x="415" y="55" width="184" height="100" as="geometry" />
        </mxCell>
        <mxCell id="EJYVXyQKUs83lIH7_FpG-41" value="" style="html=1;shape=mxgraph.sysml.port;sysMLPortType=flowN;direction=east;" vertex="1" parent="_kjHKjL6vWHTuBEeskR6-1">
          <mxGeometry x="521" y="-10" width="20" height="20" as="geometry" />
        </mxCell>
        <mxCell id="EJYVXyQKUs83lIH7_FpG-43" value="" style="html=1;shape=mxgraph.sysml.port;sysMLPortType=flowN;direction=east;" vertex="1" parent="_kjHKjL6vWHTuBEeskR6-1">
          <mxGeometry x="521" y="42" width="20" height="20" as="geometry" />
        </mxCell>
        <mxCell id="EJYVXyQKUs83lIH7_FpG-44" value="" style="html=1;shape=mxgraph.sysml.port;sysMLPortType=flowN;direction=east;" vertex="1" parent="_kjHKjL6vWHTuBEeskR6-1">
          <mxGeometry x="521" y="141" width="20" height="20" as="geometry" />
        </mxCell>
        <mxCell id="EJYVXyQKUs83lIH7_FpG-45" value="" style="html=1;shape=mxgraph.sysml.port;sysMLPortType=flowN;direction=east;" vertex="1" parent="_kjHKjL6vWHTuBEeskR6-1">
          <mxGeometry x="521" y="206" width="20" height="20" as="geometry" />
        </mxCell>
        <mxCell id="EJYVXyQKUs83lIH7_FpG-46" style="edgeStyle=orthogonalEdgeStyle;rounded=0;orthogonalLoop=1;jettySize=auto;html=1;entryX=0.5;entryY=1;entryDx=0;entryDy=0;entryPerimeter=0;endArrow=none;endFill=0;" edge="1" parent="_kjHKjL6vWHTuBEeskR6-1" source="EJYVXyQKUs83lIH7_FpG-43" target="EJYVXyQKUs83lIH7_FpG-41">
          <mxGeometry relative="1" as="geometry" />
        </mxCell>
        <mxCell id="EJYVXyQKUs83lIH7_FpG-47" style="edgeStyle=orthogonalEdgeStyle;rounded=0;orthogonalLoop=1;jettySize=auto;html=1;entryX=0.5;entryY=1;entryDx=0;entryDy=0;entryPerimeter=0;endArrow=none;endFill=0;" edge="1" parent="_kjHKjL6vWHTuBEeskR6-1" source="EJYVXyQKUs83lIH7_FpG-45" target="EJYVXyQKUs83lIH7_FpG-44">
          <mxGeometry relative="1" as="geometry" />
        </mxCell>
        <mxCell id="EJYVXyQKUs83lIH7_FpG-48" value="&lt;span style=&quot;color: rgb(0, 0, 0); font-family: Helvetica; font-size: 12px; font-style: normal; font-variant-ligatures: normal; font-variant-caps: normal; font-weight: 400; letter-spacing: normal; orphans: 2; text-align: left; text-indent: 0px; text-transform: none; widows: 2; word-spacing: 0px; -webkit-text-stroke-width: 0px; white-space: normal; background-color: rgb(251, 251, 251); text-decoration-thickness: initial; text-decoration-style: initial; text-decoration-color: initial; display: inline !important; float: none;&quot;&gt;all data: temperature,&amp;nbsp;&lt;/span&gt;&lt;span style=&quot;forced-color-adjust: none; color: rgb(0, 0, 0); font-family: Helvetica; font-size: 12px; font-style: normal; font-variant-ligatures: normal; font-variant-caps: normal; font-weight: 400; letter-spacing: normal; orphans: 2; text-align: left; text-indent: 0px; text-transform: none; widows: 2; word-spacing: 0px; -webkit-text-stroke-width: 0px; white-space: normal; background-color: initial; text-decoration-thickness: initial; text-decoration-style: initial; text-decoration-color: initial;&quot;&gt;humidity &amp;amp; voltage/current&lt;/span&gt;" style="text;whiteSpace=wrap;html=1;" vertex="1" parent="_kjHKjL6vWHTuBEeskR6-1">
          <mxGeometry x="415.00106764051645" y="166.9979686143663" width="283" height="36" as="geometry" />
        </mxCell>
        <mxCell id="EJYVXyQKUs83lIH7_FpG-50" value=":Raspberry Pi ZW" style="html=1;whiteSpace=wrap;" vertex="1" parent="_kjHKjL6vWHTuBEeskR6-1">
          <mxGeometry x="558.5" y="469" width="184" height="100" as="geometry" />
        </mxCell>
        <mxCell id="EJYVXyQKUs83lIH7_FpG-51" value=":Servo motor" style="html=1;whiteSpace=wrap;" vertex="1" parent="_kjHKjL6vWHTuBEeskR6-1">
          <mxGeometry x="871" y="469" width="184" height="100" as="geometry" />
        </mxCell>
        <mxCell id="EJYVXyQKUs83lIH7_FpG-52" value=":Stepper motor" style="html=1;whiteSpace=wrap;" vertex="1" parent="_kjHKjL6vWHTuBEeskR6-1">
          <mxGeometry x="213" y="469" width="184" height="100" as="geometry" />
        </mxCell>
        <mxCell id="EJYVXyQKUs83lIH7_FpG-53" value="" style="html=1;shape=mxgraph.sysml.port;sysMLPortType=flowN;direction=west;" vertex="1" parent="_kjHKjL6vWHTuBEeskR6-1">
          <mxGeometry x="633" y="459" width="20" height="20" as="geometry" />
        </mxCell>
        <mxCell id="EJYVXyQKUs83lIH7_FpG-54" value="" style="html=1;shape=mxgraph.sysml.port;sysMLPortType=flowN;direction=west;" vertex="1" parent="_kjHKjL6vWHTuBEeskR6-1">
          <mxGeometry x="633" y="416" width="20" height="20" as="geometry" />
        </mxCell>
        <mxCell id="EJYVXyQKUs83lIH7_FpG-55" value="" style="html=1;shape=mxgraph.sysml.port;sysMLPortType=flowN;direction=north;" vertex="1" parent="_kjHKjL6vWHTuBEeskR6-1">
          <mxGeometry x="548" y="509" width="20" height="20" as="geometry" />
        </mxCell>
        <mxCell id="EJYVXyQKUs83lIH7_FpG-56" value="" style="html=1;shape=mxgraph.sysml.port;sysMLPortType=flowN;direction=north;" vertex="1" parent="_kjHKjL6vWHTuBEeskR6-1">
          <mxGeometry x="387" y="509" width="20" height="20" as="geometry" />
        </mxCell>
        <mxCell id="EJYVXyQKUs83lIH7_FpG-57" value="" style="html=1;shape=mxgraph.sysml.port;sysMLPortType=flowN;direction=south;" vertex="1" parent="_kjHKjL6vWHTuBEeskR6-1">
          <mxGeometry x="730" y="509" width="20" height="20" as="geometry" />
        </mxCell>
        <mxCell id="EJYVXyQKUs83lIH7_FpG-58" value="" style="html=1;shape=mxgraph.sysml.port;sysMLPortType=flowN;direction=south;" vertex="1" parent="_kjHKjL6vWHTuBEeskR6-1">
          <mxGeometry x="860" y="509" width="20" height="20" as="geometry" />
        </mxCell>
        <mxCell id="EJYVXyQKUs83lIH7_FpG-59" style="edgeStyle=orthogonalEdgeStyle;rounded=0;orthogonalLoop=1;jettySize=auto;html=1;entryX=0.5;entryY=1;entryDx=0;entryDy=0;entryPerimeter=0;endArrow=none;endFill=0;" edge="1" parent="_kjHKjL6vWHTuBEeskR6-1" source="EJYVXyQKUs83lIH7_FpG-57" target="EJYVXyQKUs83lIH7_FpG-58">
          <mxGeometry relative="1" as="geometry" />
        </mxCell>
        <mxCell id="EJYVXyQKUs83lIH7_FpG-60" style="edgeStyle=orthogonalEdgeStyle;rounded=0;orthogonalLoop=1;jettySize=auto;html=1;entryX=0.5;entryY=1;entryDx=0;entryDy=0;entryPerimeter=0;endArrow=none;endFill=0;" edge="1" parent="_kjHKjL6vWHTuBEeskR6-1" source="EJYVXyQKUs83lIH7_FpG-54" target="EJYVXyQKUs83lIH7_FpG-53">
          <mxGeometry relative="1" as="geometry" />
        </mxCell>
        <mxCell id="EJYVXyQKUs83lIH7_FpG-61" style="edgeStyle=orthogonalEdgeStyle;rounded=0;orthogonalLoop=1;jettySize=auto;html=1;entryX=0.5;entryY=1;entryDx=0;entryDy=0;entryPerimeter=0;endArrow=none;endFill=0;" edge="1" parent="_kjHKjL6vWHTuBEeskR6-1" source="EJYVXyQKUs83lIH7_FpG-55" target="EJYVXyQKUs83lIH7_FpG-56">
          <mxGeometry relative="1" as="geometry" />
        </mxCell>
        <mxCell id="EJYVXyQKUs83lIH7_FpG-62" value="&lt;span style=&quot;color: rgb(0, 0, 0); font-family: Helvetica; font-size: 12px; font-style: normal; font-variant-ligatures: normal; font-variant-caps: normal; font-weight: 400; letter-spacing: normal; orphans: 2; text-align: left; text-indent: 0px; text-transform: none; widows: 2; word-spacing: 0px; -webkit-text-stroke-width: 0px; white-space: normal; background-color: rgb(251, 251, 251); text-decoration-thickness: initial; text-decoration-style: initial; text-decoration-color: initial; display: inline !important; float: none;&quot;&gt;data:&amp;nbsp;&lt;/span&gt;&lt;span style=&quot;forced-color-adjust: none; color: rgb(0, 0, 0); font-family: Helvetica; font-size: 12px; font-style: normal; font-variant-ligatures: normal; font-variant-caps: normal; font-weight: 400; letter-spacing: normal; orphans: 2; text-align: left; text-indent: 0px; text-transform: none; widows: 2; word-spacing: 0px; -webkit-text-stroke-width: 0px; white-space: normal; background-color: initial; text-decoration-thickness: initial; text-decoration-style: initial; text-decoration-color: initial;&quot;&gt;light j&lt;/span&gt;&lt;span style=&quot;forced-color-adjust: none; color: rgb(0, 0, 0); font-family: Helvetica; font-size: 12px; font-style: normal; font-variant-ligatures: normal; font-variant-caps: normal; font-weight: 400; letter-spacing: normal; orphans: 2; text-align: left; text-indent: 0px; text-transform: none; widows: 2; word-spacing: 0px; -webkit-text-stroke-width: 0px; white-space: normal; background-color: initial; text-decoration-thickness: initial; text-decoration-style: initial; text-decoration-color: initial;&quot;&gt;ntensity&lt;/span&gt;" style="text;whiteSpace=wrap;html=1;" vertex="1" parent="_kjHKjL6vWHTuBEeskR6-1">
          <mxGeometry x="651.002099239465" y="432.999678474195" width="127" height="36" as="geometry" />
        </mxCell>
        <mxCell id="EJYVXyQKUs83lIH7_FpG-63" value="&lt;span style=&quot;color: rgb(0, 0, 0); font-family: Helvetica; font-size: 12px; font-style: normal; font-variant-ligatures: normal; font-variant-caps: normal; font-weight: 400; letter-spacing: normal; orphans: 2; text-align: left; text-indent: 0px; text-transform: none; widows: 2; word-spacing: 0px; -webkit-text-stroke-width: 0px; white-space: normal; background-color: rgb(251, 251, 251); text-decoration-thickness: initial; text-decoration-style: initial; text-decoration-color: initial; display: inline !important; float: none;&quot;&gt;signal: control left/right&lt;/span&gt;" style="text;whiteSpace=wrap;html=1;" vertex="1" parent="_kjHKjL6vWHTuBEeskR6-1">
          <mxGeometry x="415.005633803859" y="490.00301180752854" width="148" height="36" as="geometry" />
        </mxCell>
        <mxCell id="EJYVXyQKUs83lIH7_FpG-64" value="&lt;span style=&quot;color: rgb(0, 0, 0); font-family: Helvetica; font-size: 12px; font-style: normal; font-variant-ligatures: normal; font-variant-caps: normal; font-weight: 400; letter-spacing: normal; orphans: 2; text-align: left; text-indent: 0px; text-transform: none; widows: 2; word-spacing: 0px; -webkit-text-stroke-width: 0px; white-space: normal; background-color: rgb(251, 251, 251); text-decoration-thickness: initial; text-decoration-style: initial; text-decoration-color: initial; display: inline !important; float: none;&quot;&gt;signal: up/down&lt;/span&gt;" style="text;whiteSpace=wrap;html=1;" vertex="1" parent="_kjHKjL6vWHTuBEeskR6-1">
          <mxGeometry x="760.0045644244028" y="492.99868882123155" width="111" height="36" as="geometry" />
        </mxCell>
        <mxCell id="EJYVXyQKUs83lIH7_FpG-65" value=":HTU21" style="html=1;whiteSpace=wrap;" vertex="1" parent="_kjHKjL6vWHTuBEeskR6-1">
          <mxGeometry x="93" y="237" width="184" height="185" as="geometry" />
        </mxCell>
        <mxCell id="EJYVXyQKUs83lIH7_FpG-66" value="" style="html=1;shape=mxgraph.sysml.port;sysMLPortType=flowN;direction=south;" vertex="1" parent="_kjHKjL6vWHTuBEeskR6-1">
          <mxGeometry x="-10" y="252.75" width="20" height="20" as="geometry" />
        </mxCell>
        <mxCell id="EJYVXyQKUs83lIH7_FpG-67" value="" style="html=1;shape=mxgraph.sysml.port;sysMLPortType=flowN;direction=south;" vertex="1" parent="_kjHKjL6vWHTuBEeskR6-1">
          <mxGeometry x="83" y="252.75" width="20" height="20" as="geometry" />
        </mxCell>
        <mxCell id="EJYVXyQKUs83lIH7_FpG-68" value="" style="html=1;shape=mxgraph.sysml.port;sysMLPortType=flowN;direction=south;" vertex="1" parent="_kjHKjL6vWHTuBEeskR6-1">
          <mxGeometry x="-10" y="299.25" width="20" height="20" as="geometry" />
        </mxCell>
        <mxCell id="EJYVXyQKUs83lIH7_FpG-69" value="" style="html=1;shape=mxgraph.sysml.port;sysMLPortType=flowN;direction=south;" vertex="1" parent="_kjHKjL6vWHTuBEeskR6-1">
          <mxGeometry x="83" y="299.25" width="20" height="20" as="geometry" />
        </mxCell>
        <mxCell id="EJYVXyQKUs83lIH7_FpG-70" value="" style="html=1;shape=mxgraph.sysml.port;sysMLPortType=flowN;direction=south;" vertex="1" parent="_kjHKjL6vWHTuBEeskR6-1">
          <mxGeometry x="269" y="253.75" width="20" height="20" as="geometry" />
        </mxCell>
        <mxCell id="EJYVXyQKUs83lIH7_FpG-71" value="" style="html=1;shape=mxgraph.sysml.port;sysMLPortType=flowN;direction=south;" vertex="1" parent="_kjHKjL6vWHTuBEeskR6-1">
          <mxGeometry x="269" y="300.25" width="20" height="20" as="geometry" />
        </mxCell>
        <mxCell id="EJYVXyQKUs83lIH7_FpG-72" value="" style="html=1;shape=mxgraph.sysml.port;sysMLPortType=flowN;direction=south;" vertex="1" parent="_kjHKjL6vWHTuBEeskR6-1">
          <mxGeometry x="407" y="253" width="20" height="20" as="geometry" />
        </mxCell>
        <mxCell id="EJYVXyQKUs83lIH7_FpG-73" value="" style="html=1;shape=mxgraph.sysml.port;sysMLPortType=flowN;direction=south;" vertex="1" parent="_kjHKjL6vWHTuBEeskR6-1">
          <mxGeometry x="407" y="300.25" width="20" height="20" as="geometry" />
        </mxCell>
        <mxCell id="EJYVXyQKUs83lIH7_FpG-74" value="" style="html=1;shape=mxgraph.sysml.port;sysMLPortType=flowN;direction=north;" vertex="1" parent="_kjHKjL6vWHTuBEeskR6-1">
          <mxGeometry x="269" y="344" width="20" height="20" as="geometry" />
        </mxCell>
        <mxCell id="EJYVXyQKUs83lIH7_FpG-75" value="" style="html=1;shape=mxgraph.sysml.port;sysMLPortType=flowN;direction=north;" vertex="1" parent="_kjHKjL6vWHTuBEeskR6-1">
          <mxGeometry x="269" y="382" width="20" height="20" as="geometry" />
        </mxCell>
        <mxCell id="EJYVXyQKUs83lIH7_FpG-76" value="" style="html=1;shape=mxgraph.sysml.port;sysMLPortType=flowN;direction=north;" vertex="1" parent="_kjHKjL6vWHTuBEeskR6-1">
          <mxGeometry x="407" y="344" width="20" height="20" as="geometry" />
        </mxCell>
        <mxCell id="EJYVXyQKUs83lIH7_FpG-77" value="" style="html=1;shape=mxgraph.sysml.port;sysMLPortType=flowN;direction=north;" vertex="1" parent="_kjHKjL6vWHTuBEeskR6-1">
          <mxGeometry x="407" y="382" width="20" height="20" as="geometry" />
        </mxCell>
        <mxCell id="EJYVXyQKUs83lIH7_FpG-78" value="" style="html=1;shape=mxgraph.sysml.port;sysMLPortType=flowN;direction=south;" vertex="1" parent="_kjHKjL6vWHTuBEeskR6-1">
          <mxGeometry x="789.5" y="400" width="20" height="20" as="geometry" />
        </mxCell>
        <mxCell id="EJYVXyQKUs83lIH7_FpG-80" value="" style="html=1;shape=mxgraph.sysml.port;sysMLPortType=doubleH;" vertex="1" parent="_kjHKjL6vWHTuBEeskR6-1">
          <mxGeometry x="792" y="366" width="20" height="20" as="geometry" />
        </mxCell>
        <mxCell id="EJYVXyQKUs83lIH7_FpG-84" style="edgeStyle=orthogonalEdgeStyle;rounded=0;orthogonalLoop=1;jettySize=auto;html=1;entryX=0.5;entryY=1;entryDx=0;entryDy=0;entryPerimeter=0;endArrow=none;endFill=0;" edge="1" parent="_kjHKjL6vWHTuBEeskR6-1" source="EJYVXyQKUs83lIH7_FpG-66" target="EJYVXyQKUs83lIH7_FpG-67">
          <mxGeometry relative="1" as="geometry" />
        </mxCell>
        <mxCell id="EJYVXyQKUs83lIH7_FpG-85" style="edgeStyle=orthogonalEdgeStyle;rounded=0;orthogonalLoop=1;jettySize=auto;html=1;entryX=0.5;entryY=1;entryDx=0;entryDy=0;entryPerimeter=0;endArrow=none;endFill=0;" edge="1" parent="_kjHKjL6vWHTuBEeskR6-1" source="EJYVXyQKUs83lIH7_FpG-68" target="EJYVXyQKUs83lIH7_FpG-69">
          <mxGeometry relative="1" as="geometry" />
        </mxCell>
        <mxCell id="EJYVXyQKUs83lIH7_FpG-86" style="edgeStyle=orthogonalEdgeStyle;rounded=0;orthogonalLoop=1;jettySize=auto;html=1;entryX=0.5;entryY=1;entryDx=0;entryDy=0;entryPerimeter=0;endArrow=none;endFill=0;" edge="1" parent="_kjHKjL6vWHTuBEeskR6-1" source="EJYVXyQKUs83lIH7_FpG-70" target="EJYVXyQKUs83lIH7_FpG-72">
          <mxGeometry relative="1" as="geometry" />
        </mxCell>
        <mxCell id="EJYVXyQKUs83lIH7_FpG-87" style="edgeStyle=orthogonalEdgeStyle;rounded=0;orthogonalLoop=1;jettySize=auto;html=1;entryX=0.5;entryY=1;entryDx=0;entryDy=0;entryPerimeter=0;endArrow=none;endFill=0;" edge="1" parent="_kjHKjL6vWHTuBEeskR6-1" source="EJYVXyQKUs83lIH7_FpG-71" target="EJYVXyQKUs83lIH7_FpG-73">
          <mxGeometry relative="1" as="geometry" />
        </mxCell>
        <mxCell id="EJYVXyQKUs83lIH7_FpG-88" style="edgeStyle=orthogonalEdgeStyle;rounded=0;orthogonalLoop=1;jettySize=auto;html=1;entryX=0.5;entryY=0;entryDx=0;entryDy=0;entryPerimeter=0;endArrow=none;endFill=0;" edge="1" parent="_kjHKjL6vWHTuBEeskR6-1">
          <mxGeometry relative="1" as="geometry">
            <mxPoint x="294" y="353.0000000000002" as="sourcePoint" />
            <mxPoint x="412" y="353.0000000000002" as="targetPoint" />
          </mxGeometry>
        </mxCell>
        <mxCell id="EJYVXyQKUs83lIH7_FpG-89" style="edgeStyle=orthogonalEdgeStyle;rounded=0;orthogonalLoop=1;jettySize=auto;html=1;entryX=0.5;entryY=0;entryDx=0;entryDy=0;entryPerimeter=0;endArrow=none;endFill=0;" edge="1" parent="_kjHKjL6vWHTuBEeskR6-1" source="EJYVXyQKUs83lIH7_FpG-75" target="EJYVXyQKUs83lIH7_FpG-77">
          <mxGeometry relative="1" as="geometry" />
        </mxCell>
        <mxCell id="EJYVXyQKUs83lIH7_FpG-92" value="&lt;span style=&quot;color: rgb(0, 0, 0); font-family: Helvetica; font-size: 12px; font-style: normal; font-variant-ligatures: normal; font-variant-caps: normal; font-weight: 400; letter-spacing: normal; orphans: 2; text-align: left; text-indent: 0px; text-transform: none; widows: 2; word-spacing: 0px; -webkit-text-stroke-width: 0px; white-space: normal; background-color: rgb(251, 251, 251); text-decoration-thickness: initial; text-decoration-style: initial; text-decoration-color: initial; display: inline !important; float: none;&quot;&gt;data: commands (SDA)&lt;/span&gt;" style="text;whiteSpace=wrap;html=1;" vertex="1" parent="_kjHKjL6vWHTuBEeskR6-1">
          <mxGeometry x="281.997181939019" y="398.9976505533855" width="153" height="36" as="geometry" />
        </mxCell>
        <mxCell id="EJYVXyQKUs83lIH7_FpG-94" value="&lt;p style=&quot;forced-color-adjust: none; color: rgb(0, 0, 0); font-family: Helvetica; font-size: 12px; font-style: normal; font-variant-ligatures: normal; font-variant-caps: normal; font-weight: 400; letter-spacing: normal; orphans: 2; text-indent: 0px; text-transform: none; widows: 2; word-spacing: 0px; -webkit-text-stroke-width: 0px; white-space: normal; background-color: rgb(251, 251, 251); text-decoration-thickness: initial; text-decoration-style: initial; text-decoration-color: initial; text-align: left; margin: 0px 0px 0px 8px;&quot;&gt;signal: clock (SCL)&lt;/p&gt;" style="text;whiteSpace=wrap;html=1;" vertex="1" parent="_kjHKjL6vWHTuBEeskR6-1">
          <mxGeometry x="282.0005152723523" y="358.0020949978298" width="149" height="51" as="geometry" />
        </mxCell>
        <mxCell id="EJYVXyQKUs83lIH7_FpG-96" value="&lt;span style=&quot;color: rgb(0, 0, 0); font-family: Helvetica; font-size: 12px; font-style: normal; font-variant-ligatures: normal; font-variant-caps: normal; font-weight: 400; letter-spacing: normal; orphans: 2; text-align: left; text-indent: 0px; text-transform: none; widows: 2; word-spacing: 0px; -webkit-text-stroke-width: 0px; white-space: normal; background-color: rgb(251, 251, 251); text-decoration-thickness: initial; text-decoration-style: initial; text-decoration-color: initial; display: inline !important; float: none;&quot;&gt;raw data: temperature&lt;/span&gt;" style="text;whiteSpace=wrap;html=1;" vertex="1" parent="_kjHKjL6vWHTuBEeskR6-1">
          <mxGeometry x="289.00051527235235" y="233.00209499782977" width="145" height="36" as="geometry" />
        </mxCell>
        <mxCell id="EJYVXyQKUs83lIH7_FpG-97" value="&lt;span style=&quot;color: rgb(0, 0, 0); font-family: Helvetica; font-size: 12px; font-style: normal; font-variant-ligatures: normal; font-variant-caps: normal; font-weight: 400; letter-spacing: normal; orphans: 2; text-align: left; text-indent: 0px; text-transform: none; widows: 2; word-spacing: 0px; -webkit-text-stroke-width: 0px; white-space: normal; background-color: rgb(251, 251, 251); text-decoration-thickness: initial; text-decoration-style: initial; text-decoration-color: initial; display: inline !important; float: none;&quot;&gt;raw data:&amp;nbsp;humidity&lt;/span&gt;" style="text;whiteSpace=wrap;html=1;" vertex="1" parent="_kjHKjL6vWHTuBEeskR6-1">
          <mxGeometry x="293.997181939019" y="284.2498727756076" width="125" height="36" as="geometry" />
        </mxCell>
        <mxCell id="EJYVXyQKUs83lIH7_FpG-100" value="&lt;span style=&quot;color: rgb(0, 0, 0); font-family: Helvetica; font-size: 12px; font-style: normal; font-variant-ligatures: normal; font-variant-caps: normal; font-weight: 400; letter-spacing: normal; orphans: 2; text-align: left; text-indent: 0px; text-transform: none; widows: 2; word-spacing: 0px; -webkit-text-stroke-width: 0px; white-space: normal; background-color: rgb(251, 251, 251); text-decoration-thickness: initial; text-decoration-style: initial; text-decoration-color: initial; display: inline !important; float: none;&quot;&gt;net: wifi&lt;/span&gt;" style="text;whiteSpace=wrap;html=1;" vertex="1" parent="_kjHKjL6vWHTuBEeskR6-1">
          <mxGeometry x="905.9994041612413" y="347.9976505533855" width="69" height="36" as="geometry" />
        </mxCell>
        <mxCell id="EJYVXyQKUs83lIH7_FpG-101" value="&lt;span style=&quot;color: rgb(0, 0, 0); font-family: Helvetica; font-size: 12px; font-style: normal; font-variant-ligatures: normal; font-variant-caps: normal; font-weight: 400; letter-spacing: normal; orphans: 2; text-align: left; text-indent: 0px; text-transform: none; widows: 2; word-spacing: 0px; -webkit-text-stroke-width: 0px; white-space: normal; background-color: rgb(251, 251, 251); text-decoration-thickness: initial; text-decoration-style: initial; text-decoration-color: initial; display: inline !important; float: none;&quot;&gt;data: webclient&lt;/span&gt;" style="text;whiteSpace=wrap;html=1;" vertex="1" parent="_kjHKjL6vWHTuBEeskR6-1">
          <mxGeometry x="931.9960708279077" y="416.0043172200519" width="108" height="36" as="geometry" />
        </mxCell>
        <mxCell id="EJYVXyQKUs83lIH7_FpG-79" value="" style="html=1;shape=mxgraph.sysml.port;sysMLPortType=flowN;direction=south;" vertex="1" parent="1">
          <mxGeometry x="448" y="1340" width="20" height="20" as="geometry" />
        </mxCell>
        <mxCell id="EJYVXyQKUs83lIH7_FpG-82" style="edgeStyle=orthogonalEdgeStyle;rounded=0;orthogonalLoop=1;jettySize=auto;html=1;entryX=0.5;entryY=1;entryDx=0;entryDy=0;entryPerimeter=0;endArrow=none;endFill=0;" edge="1" parent="1" source="EJYVXyQKUs83lIH7_FpG-78" target="EJYVXyQKUs83lIH7_FpG-79">
          <mxGeometry relative="1" as="geometry" />
        </mxCell>
        <mxCell id="EJYVXyQKUs83lIH7_FpG-91" value="&lt;span style=&quot;color: rgb(0, 0, 0); font-family: Helvetica; font-size: 12px; font-style: normal; font-variant-ligatures: normal; font-variant-caps: normal; font-weight: 400; letter-spacing: normal; orphans: 2; text-align: left; text-indent: 0px; text-transform: none; widows: 2; word-spacing: 0px; -webkit-text-stroke-width: 0px; white-space: normal; background-color: rgb(251, 251, 251); text-decoration-thickness: initial; text-decoration-style: initial; text-decoration-color: initial; display: inline !important; float: none;&quot;&gt;signal: clock (SCL)&lt;/span&gt;" style="text;whiteSpace=wrap;html=1;" vertex="1" parent="1">
          <mxGeometry x="-541.9983736165366" y="855.9969550238716" width="128" height="36" as="geometry" />
        </mxCell>
        <mxCell id="EJYVXyQKUs83lIH7_FpG-81" value="" style="html=1;shape=mxgraph.sysml.port;sysMLPortType=doubleH;" vertex="1" parent="1">
          <mxGeometry x="448" y="1305" width="20" height="20" as="geometry" />
        </mxCell>
        <mxCell id="EJYVXyQKUs83lIH7_FpG-83" style="edgeStyle=orthogonalEdgeStyle;rounded=0;orthogonalLoop=1;jettySize=auto;html=1;entryX=0;entryY=0.5;entryDx=0;entryDy=0;entryPerimeter=0;strokeColor=default;endArrow=none;endFill=0;" edge="1" parent="1" source="EJYVXyQKUs83lIH7_FpG-80" target="EJYVXyQKUs83lIH7_FpG-81">
          <mxGeometry relative="1" as="geometry" />
        </mxCell>
        <mxCell id="EJYVXyQKUs83lIH7_FpG-98" value="&lt;span style=&quot;color: rgb(0, 0, 0); font-family: Helvetica; font-size: 12px; font-style: normal; font-variant-ligatures: normal; font-variant-caps: normal; font-weight: 400; letter-spacing: normal; orphans: 2; text-align: left; text-indent: 0px; text-transform: none; widows: 2; word-spacing: 0px; -webkit-text-stroke-width: 0px; white-space: normal; background-color: rgb(251, 251, 251); text-decoration-thickness: initial; text-decoration-style: initial; text-decoration-color: initial; display: inline !important; float: none;&quot;&gt;energy: temperature&lt;/span&gt;" style="text;whiteSpace=wrap;html=1;" vertex="1" parent="1">
          <mxGeometry x="-846.9950402832031" y="1190.0020949978298" width="136" height="36" as="geometry" />
        </mxCell>
        <mxCell id="EJYVXyQKUs83lIH7_FpG-99" value="&lt;span style=&quot;color: rgb(0, 0, 0); font-family: Helvetica; font-size: 12px; font-style: normal; font-variant-ligatures: normal; font-variant-caps: normal; font-weight: 400; letter-spacing: normal; orphans: 2; text-align: left; text-indent: 0px; text-transform: none; widows: 2; word-spacing: 0px; -webkit-text-stroke-width: 0px; white-space: normal; background-color: rgb(251, 251, 251); text-decoration-thickness: initial; text-decoration-style: initial; text-decoration-color: initial; display: inline !important; float: none;&quot;&gt;moist:&amp;nbsp;humidity&lt;/span&gt;" style="text;whiteSpace=wrap;html=1;" vertex="1" parent="1">
          <mxGeometry x="-818.9994847276477" y="1238.9998727756076" width="108" height="36" as="geometry" />
        </mxCell>
        <mxCell id="EJYVXyQKUs83lIH7_FpG-49" value="&lt;span style=&quot;color: rgb(0, 0, 0); font-family: Helvetica; font-size: 12px; font-style: normal; font-variant-ligatures: normal; font-variant-caps: normal; font-weight: 400; letter-spacing: normal; orphans: 2; text-align: left; text-indent: 0px; text-transform: none; widows: 2; word-spacing: 0px; -webkit-text-stroke-width: 0px; white-space: normal; background-color: rgb(251, 251, 251); text-decoration-thickness: initial; text-decoration-style: initial; text-decoration-color: initial; display: inline !important; float: none;&quot;&gt;&lt;span&gt;&amp;nbsp;&lt;/span&gt;display: all data&lt;/span&gt;" style="text;whiteSpace=wrap;html=1;" vertex="1" parent="1">
          <mxGeometry x="-230.9991868082683" y="901.0035241699219" width="114" height="36" as="geometry" />
        </mxCell>
        <mxCell id="EJYVXyQKUs83lIH7_FpG-9" value="light: intensity" style="text;html=1;align=center;verticalAlign=middle;whiteSpace=wrap;rounded=0;" vertex="1" parent="1">
          <mxGeometry x="-6" y="897" width="90" height="30" as="geometry" />
        </mxCell>
        <mxCell id="EJYVXyQKUs83lIH7_FpG-37" value="&lt;p style=&quot;forced-color-adjust: none; color: rgb(0, 0, 0); font-family: Helvetica; font-size: 12px; font-style: normal; font-variant-ligatures: normal; font-variant-caps: normal; font-weight: 400; letter-spacing: normal; orphans: 2; text-indent: 0px; text-transform: none; widows: 2; word-spacing: 0px; -webkit-text-stroke-width: 0px; white-space: normal; background-color: rgb(251, 251, 251); text-decoration-thickness: initial; text-decoration-style: initial; text-decoration-color: initial; text-align: left; margin: 0px 0px 0px 8px;&quot;&gt;energy: light&lt;/p&gt;" style="text;whiteSpace=wrap;html=1;" vertex="1" parent="1">
          <mxGeometry x="267.0045454545452" y="901.9972727272725" width="114" height="51" as="geometry" />
        </mxCell>
      </root>
    </mxGraphModel>
  </diagram>
</mxfile>
